<svg id="Capa_1" data-name="Capa 1" xmlns="http://www.w3.org/2000/svg" viewBox="0 0 1001 1001"><defs><style>.cls-1{fill:#fff;}</style></defs><rect x="-21.5" y="-21.5" width="1044" height="1044"/><path class="cls-1" d="M617.68,185.76c-57.52,0-127.13,71.31-117.28,138.08C560.17,327.48,620,269.43,617.68,185.76Z"/><path class="cls-1" d="M740.89,619.16c-19.66-11.83-60.58-36.42-60.58-100.36,0-54,36.13-81.24,55.93-96.18l13.86-10.46-9.63-14.48C699.36,335.94,631,331,608.41,331h-.18c-30.21,0-56.15,10.31-77,18.61-9.78,3.87-20.85,8.28-25.55,8.28-7.85,0-22-5.18-35.6-10.21-19.52-7.2-41.64-15.33-62.36-15.33-46,0-165.28,34.81-165.28,193.84,0,97.35,77.46,288.52,171.11,289.06h.61a115.38,115.38,0,0,0,18.91-1.63l-.65-51.85A131.22,131.22,0,0,1,437,534.45l1.23,97.91,62.22,34.89,61.33-36.44-1.23-97.91A131.22,131.22,0,0,1,570.9,760l.6,47.63a105.14,105.14,0,0,0,36.61,6.63c89.09,0,150.44-165.06,150.44-172.74C758.55,629.76,749.56,624.38,740.89,619.16Z"/></svg>