<svg id="Capa_1" data-name="Capa 1" xmlns="http://www.w3.org/2000/svg" viewBox="0 0 1000 1000"><defs><style>.cls-1{fill:#fff;}</style></defs><path class="cls-1" d="M676.29,26.5C589.75,26.5,485,133.77,499.85,234.23,589.76,239.7,679.78,152.38,676.29,26.5Z"/><path class="cls-1" d="M861.65,678.52c-29.58-17.8-91.14-54.79-91.14-151,0-81.22,54.36-122.22,84.15-144.7l20.85-15.74L861,345.32C799.17,252.43,696.28,245,662.35,245h-.27c-45.45,0-84.47,15.52-115.84,28-14.7,5.82-31.36,12.46-38.43,12.46-11.8,0-33-7.8-53.57-15.36C424.89,259.25,391.6,247,360.43,247c-69.17,0-248.65,52.38-248.65,291.62,0,146.47,116.54,434.06,257.42,434.87h.93a173.22,173.22,0,0,0,28.43-2.45l-1-78a197.4,197.4,0,0,1,6.94-342l1.85,147.29L500,750.87,592.25,696,590.4,548.75a197.4,197.4,0,0,1,15.51,341.68l.9,71.65a157.83,157.83,0,0,0,55.08,10c134,0,226.33-248.32,226.33-259.89C888.22,694.47,874.7,686.37,861.65,678.52Z"/></svg>