<svg id="Capa_1" data-name="Capa 1" xmlns="http://www.w3.org/2000/svg" viewBox="0 0 1001 1001"><path d="M654.27,26.5C567.73,26.5,463,133.77,477.82,234.23,567.74,239.7,657.76,152.38,654.27,26.5Z"/><path d="M839.62,678.52c-29.57-17.8-91.13-54.79-91.13-151,0-81.22,54.35-122.22,84.14-144.7l20.86-15.74L839,345.32C777.14,252.43,674.25,245,640.32,245h-.27c-45.45,0-84.47,15.52-115.83,28-14.71,5.82-31.37,12.46-38.43,12.46-11.81,0-33-7.8-53.57-15.36C402.86,259.25,369.57,247,338.4,247c-69.17,0-248.64,52.38-248.64,291.62,0,146.47,116.53,434.06,257.42,434.87h.92a173.44,173.44,0,0,0,28.44-2.45l-1-78a197.4,197.4,0,0,1,6.94-342l1.85,147.29L478,750.87,570.22,696l-1.85-147.29a197.41,197.41,0,0,1,15.52,341.68l.9,71.65c15.42,5.55,33.07,10,55.07,10,134,0,226.33-248.32,226.33-259.89C866.19,694.47,852.67,686.37,839.62,678.52Z"/></svg>