<?xml version="1.0" encoding="utf-8"?>
<!-- Generator: Adobe Illustrator 25.0.0, SVG Export Plug-In . SVG Version: 6.00 Build 0)  -->
<svg version="1.1" id="Capa_1" xmlns="http://www.w3.org/2000/svg" xmlns:xlink="http://www.w3.org/1999/xlink" x="0px" y="0px"
	 viewBox="0 0 34.9 41.5" style="enable-background:new 0 0 34.9 41.5;" xml:space="preserve">
<style type="text/css">
	.st0{fill:#F5F5F7;}
</style>
<path class="st0" d="M33.3,40.1v-0.2V38h1.6V4.6h-1.7l0,0V0.8c0-0.4-0.3-0.8-0.7-0.8s-0.7,0.3-0.7,0.8v3.8l0,0H3.5l0,0V0.8
	C3.5,0.3,3.1,0,2.7,0S2,0.3,2,0.8v3.8l0,0H0V38h1.7v1.8v0.1v0.2c0,0,0,0,0,0c0,0,0,0,0,0.1c0,0,0,0,0,0.1c0,0,0,0,0,0.1s0,0-0.1,0
	c0,0,0,0-0.1,0c0,0,0,0-0.1,0h-1l0,0H0.2v1h4.2v-1H4.2h-1c0,0,0,0-0.1,0s0,0-0.1,0c0,0,0,0-0.1,0s0,0,0-0.1c0,0,0,0,0-0.1
	c0,0,0,0,0-0.1c0,0,0,0,0,0l0,0v-0.2V38h29.2v1.8v0.1v0.2c0,0,0,0,0,0c0,0,0,0,0,0.1c0,0,0,0,0,0.1c0,0,0,0,0,0.1s0,0-0.1,0
	c0,0,0,0-0.1,0c0,0,0,0-0.1,0h-1l0,0h-0.2v1h4.2v-1h-0.2h-1c0,0,0,0-0.1,0c0,0,0,0-0.1,0c0,0,0,0-0.1,0s0,0,0-0.1c0,0,0,0,0-0.1
	C33.3,40.2,33.3,40.2,33.3,40.1C33.3,40.1,33.3,40.1,33.3,40.1L33.3,40.1z M18,16.4c0.3-0.4,0.9-0.7,1.3-0.7c0,0.5-0.2,1.1-0.5,1.5
	c-0.3,0.4-0.8,0.7-1.3,0.6C17.4,17.3,17.7,16.7,18,16.4z M20.6,23.7c-0.4,0.6-0.8,1.1-1.4,1.1c-0.6,0-0.8-0.4-1.5-0.4
	c-0.7,0-0.9,0.3-1.5,0.4c-0.6,0-1.1-0.6-1.4-1.2c-0.8-1.1-1.4-3.2-0.6-4.6c0.4-0.7,1.1-1.1,1.9-1.2c0.6,0,1.1,0.4,1.5,0.4
	s1-0.5,1.7-0.4c0.3,0,1.1,0.1,1.6,0.9c0,0-1,0.6-1,1.8c0,1.4,1.2,1.9,1.2,1.9C21.2,22.5,21,23.1,20.6,23.7z"/>
</svg>
