<?xml version="1.0" encoding="utf-8"?>
<!-- Generator: Adobe Illustrator 25.3.1, SVG Export Plug-In . SVG Version: 6.00 Build 0)  -->
<svg version="1.1" id="Capa_1" xmlns="http://www.w3.org/2000/svg" xmlns:xlink="http://www.w3.org/1999/xlink" x="0px" y="0px"
	 viewBox="0 0 54 54" style="enable-background:new 0 0 54 54;" xml:space="preserve">
<style type="text/css">
	.st0{fill:#1D1D1F;}
</style>
<path class="st0" d="M48,48V24.5c0.1-0.7-0.4-1.4-1.2-1.5c-0.1,0-0.2,0-0.3,0h-39c-0.7-0.1-1.4,0.4-1.5,1.2c0,0.1,0,0.2,0,0.3V48H1
	c0.1,0.1,0.1,0.3,0.2,0.3c1.4,0.8,3,1.3,4.6,1.4c2.6,0.2,7.6,0.3,7.6,0.3h12.9h13c0,0,6-0.1,8.6-0.3c1.6-0.1,3.2-0.6,4.6-1.4
	c0.2-0.1,0.3-0.2,0.4-0.3H48z M8,25h38v23H8V25z"/>
</svg>
